# xmcd
#
# Track frame offsets:
#	150
#	12795
#	21062
#	24320
#	30425
#	50345
#	69220
#	88950
#	110545
#	120112
#	138182
#	150402
#	167765
#	169615
#	185952
#	196170
#	199227
#	206502
#	213637
#	230450
#	242375
#	251905
#	273012
#	290070
#	296037
#	313570
#	325450
#
# Disc length: 4547 seconds
#
# Revision: 0
# Processed by: cddbd v1.5.2PL0 Copyright (c) Steve Scherf et al.
# Submitted via: audiograbber 1.83.01
#
DISCID=7911c11b
DTITLE=Various Artist - Classic Ballads Of Britain and Ireland
DYEAR=2000
DGENRE=Folk
TTITLE0=John Strachan - The Royal Forester (The Knight and the Shepherd's Daugh
TTITLE0=ter)
TTITLE1=Emily Bishop - The Baffled Knight (Clear Away the Morning Dew)
TTITLE2=John Strachan - Robin Hood and Little John
TTITLE3=Cecilia Costello - The Jew's Daughter (Sir Hugh)
TTITLE4=Jeannie Robertson, Lucy Stewart - The Battle of Harlaw
TTITLE5=Jeannie Robertson - Mary Hamilton (The Four Marys)
TTITLE6=Belle Stewart - The Bonny Hoose o' Airlie
TTITLE7=Jeannie Robertson, Paddy Doran - The Gypsy Laddie
TTITLE8=Harry Cox - Georgie (Geordie)
TTITLE9=Davie Stewart - The Dowie Dens o' Yarrow
TTITLE10=John Strachan - Clyde's Water (The Mother's Malison)
TTITLE11=Cecilia Costello, Thomas Moran - The Green Wedding (Catherine Jaffray)
TTITLE12=Jimmy MacBeath - Eppie Morrie
TTITLE13=Lucy Stewart - The Laird o' Drum
TTITLE14=John Strachan - Glenlogie (Jean o' Bethelnie)
TTITLE15=Willie Mathieson - The Bonny Rantin' Laddie
TTITLE16=Cecilia Costello - The Grey Ghost
TTITLE17=John Strachan - Lang Johnny More
TTITLE18=Jeannie Robertson - Willie's Fatal Visit (Willie's Fate)
TTITLE19=Harry Cox, Mary O'Conners, Colm Keane - The Cuckold's Song (Our Goodma
TTITLE19=n)
TTITLE20=Thomas Moran - The Farmer's Curst Wife
TTITLE21=Jeannie Robertson - The Jolly Beggar
TTITLE22=John Strachan, Maggie and Sarah Chambers, Togo Crawford - The Beggarma
TTITLE22=n (The Gaberlunzie Man)
TTITLE23=Michael Gallagher - The Keach in the Creel
TTITLE24=Dodie Chalmers - The Golden Victory (Golden Vanity)
TTITLE25=William Howell - The Mermaid
TTITLE26=Jimmy MacBeath - The Trooper and the Maid
EXTD=
EXTT0=
EXTT1=
EXTT2=
EXTT3=
EXTT4=
EXTT5=
EXTT6=
EXTT7=
EXTT8=
EXTT9=
EXTT10=
EXTT11=
EXTT12=
EXTT13=
EXTT14=
EXTT15=
EXTT16=
EXTT17=
EXTT18=
EXTT19=
EXTT20=
EXTT21=
EXTT22=
EXTT23=
EXTT24=
EXTT25=
EXTT26=
PLAYORDER=
